<?xml version="1.0" encoding="UTF-8"?>
<svg id="Layer_2" data-name="Layer 2" xmlns="http://www.w3.org/2000/svg" xmlns:xlink="http://www.w3.org/1999/xlink" viewBox="0 0 2880 760">
  <defs>
    <style>
      .cls-1 {
        fill: none;
      }

      .cls-2 {
        fill: url(#linear-gradient);
      }

      .cls-3 {
        clip-path: url(#clippath);
      }
    </style>
    <clipPath id="clippath">
      <path class="cls-1" d="M2880,760H0V0h2880v760Z"/>
    </clipPath>
    <linearGradient id="linear-gradient" x1="252.56" y1="380" x2="2628.56" y2="380" gradientUnits="userSpaceOnUse">
      <stop offset="0" stop-color="#2665e2"/>
      <stop offset="1" stop-color="#c26de6"/>
    </linearGradient>
  </defs>
  <g id="_01.1_Blue_Wordmark_Recreation_" data-name="[01.1] Blue Wordmark (Recreation)">
    <g class="cls-3">
      <path class="cls-2" d="M2513.61,395.8v-110.15h-81.42v-31.49l196.37-.05v31.54h-81.42v220.31h-33.53v-110.15ZM1836.35,380.05v-125.95h162.9v31.55h-129.27v76.6h120.13v32.02h-120.13v79.71h135.51v32.02h-169.14v-125.95ZM1049.52,380.05v-125.95h33.99v251.9h-33.99v-125.95ZM348.1,364.18c2.48-.35,4.94-.83,7.38-1.46,8.98-2.34,17.65-7.15,22.81-14.84,3.71-5.52,5.4-12.18,5.99-18.79.68-7.7-.1-15.68-3.39-22.68-2.96-6.31-7.92-11.67-13.96-15.19-8.62-5.04-18.93-6.24-28.91-6.72-17.27-.82-34.65-.23-51.93-.29,0,0,0,81.15,0,81.15,12.69-.48,25.4-.01,38.09-.09,7.96-.05,16.03.04,23.92-1.09ZM252.56,380.05s0-125.95,0-125.95c19.27-.06,38.53.03,57.8.03,30.98,0,55.6-2.24,78.62,11.42,5.11,3.03,10.39,7.06,14.4,11.43,6.18,6.71,10.43,15.03,13.11,23.73,5.14,16.72,4.47,35.3-2.66,51.28-9.82,22.01-31.59,36.61-55.43,39.3l70.41,114.3.25.4c-10.33,0-31.35-.01-41.68-.02,0,0-62.71-110.18-63.17-111.1h-38.13v111.13h-33.53v-125.95ZM781.86,389.89c-1.76-1.68-9.14-8.55-10.62-10.25,4.77-4.35,14.38-13.1,19.16-17.45h119.13c4.67,4.32,18.93,17.46,18.93,17.46,0,0-14.36,13.77-18.93,18.14-29.73,0-89.4.01-119.13.02l-8.54-7.92ZM765.63,505.97c41.64.06,168.13,0,168.13,0l-27.68-35.59h-112.23l-28.22,35.59ZM933.76,254.03c-41.64-.06-168.13,0-168.13,0l27.68,35.59h112.23l28.22-35.59ZM1393.62,254.1v203.36c-.38-.02-141.63-203.36-141.63-203.36h-41.96v251.9h33.26v-203.36l141.49,203.35h42.1s0-251.89,0-251.89h-33.26ZM1746.35,254.11c-9.57,0-29.58,0-39.15,0-12.42,34.3-74.91,202.56-74.91,202.56l-74.91-202.57s-29.58.01-39.15,0c.82,2.15,95.48,251.89,95.48,251.89,0,0,9.14-.02,18.58-.02,9.44,0,18.58.02,18.58.02,0,0,94.65-249.74,95.48-251.89ZM529.85,389.89c-1.76-1.68-9.14-8.55-10.62-10.25,4.77-4.35,14.38-13.1,19.16-17.45h119.13c4.67,4.32,18.93,17.46,18.93,17.46,0,0-14.36,13.77-18.93,18.14-29.73,0-89.4.01-119.13.02l-8.54-7.92ZM513.62,505.97c41.64.06,168.13,0,168.13,0l-27.68-35.59h-112.23l-28.22,35.59ZM681.75,254.03c-41.64-.06-168.13,0-168.13,0l27.68,35.59h112.23l28.22-35.59ZM2298.22,254.1v203.36c-.38-.02-141.63-203.36-141.63-203.36h-41.96v251.9h33.26v-203.36l141.49,203.35h42.1s0-251.89,0-251.89h-33.26Z"/>
    </g>
  </g>
</svg>